<svg width="792" height="397" viewBox="0 0 792 397" fill="none" xmlns="http://www.w3.org/2000/svg">
<g clip-path="url(#clip0_2_30)">
<path d="M260.821 397C236.923 397 213.061 396.572 189.235 395.717C155.189 394.494 119.985 393.23 87.2637 375.083C64.3738 362.39 44.1012 342.024 28.6382 316.187C18.303 298.675 10.7248 279.676 6.16969 259.859C-2.32726 223.778 -2.03784 186.185 7.0136 150.239C10.1856 137.915 14.5584 125.932 20.0692 114.461C43.9315 65.0499 87.4545 31.8817 139.479 23.4616C139.909 23.4058 140.343 23.3966 140.775 23.4339C141.009 23.4465 141.242 23.4599 141.48 23.4499L141.786 23.3526C142.57 23.0799 143.376 22.8731 144.195 22.7343C224.431 10.7903 309.251 34.9571 389.481 92.6203C451.514 137.211 533.726 161.223 640.814 166.027L642.335 166.107C672.146 167.819 700.982 180.109 725.729 201.649C750.155 222.908 768.495 251.273 778.765 283.677C780.028 287.627 781.185 291.74 782.206 295.899C783.155 299.764 783.088 303.809 782.011 307.641C780.934 311.473 778.883 314.96 776.058 317.765V317.772L775.791 318.046C775.15 318.685 774.474 319.297 773.783 319.867L772.971 320.536C766.128 326.173 760.722 330.627 754.253 334.085C749.939 336.376 745.35 338.108 740.598 339.24C714.501 345.602 688 351.5 661.83 356.773C611.007 367.019 558.845 375.472 506.792 381.895C425.188 391.957 343.043 397.001 260.821 397V397ZM140.166 25.1839C140.006 25.1824 139.847 25.1933 139.689 25.2164C88.1505 33.5578 45.0394 66.4004 21.4138 115.322C15.9573 126.679 11.6278 138.544 8.48737 150.746C-0.481601 186.373 -0.767417 223.632 7.65396 259.393C12.1644 279.021 19.6692 297.837 29.9047 315.182C45.2163 340.766 65.2816 360.927 87.9315 373.487C120.359 391.471 155.398 392.729 189.283 393.945C295.263 397.732 401.377 393.114 506.628 380.135C558.647 373.715 610.775 365.268 661.565 355.027C687.717 349.76 714.2 343.866 740.279 337.507C744.916 336.404 749.395 334.714 753.605 332.478C759.944 329.09 765.298 324.679 772.076 319.096L772.888 318.427C773.482 317.937 774.065 317.413 774.622 316.868L774.782 316.7C780.352 311.086 782.518 303.68 780.725 296.38V296.379C779.716 292.265 778.571 288.196 777.321 284.286C756.339 218.091 702.063 171.311 642.261 167.876L640.749 167.797C591.832 165.602 549.027 159.522 509.891 149.208C463.173 136.896 422.387 118.362 388.666 94.1226C308.742 36.6803 224.276 12.6034 144.391 24.4908C143.645 24.6195 142.911 24.8098 142.196 25.0598L141.644 25.2142C141.331 25.2282 141.017 25.2245 140.704 25.203C140.52 25.1935 140.341 25.1839 140.166 25.1839H140.166Z" fill="#F0F0F0"/>
<path d="M247.388 129.347C245.176 127.225 242.913 115.389 240.089 114.187C242.2 118.853 240.667 120.089 240.656 125.209C240.682 128.117 240.343 131.016 239.645 133.839H191.798V96.5006C191.798 93.1456 192.459 89.8235 193.743 86.7239C195.026 83.6243 196.908 80.8079 199.281 78.4356C201.653 76.0633 204.47 74.1814 207.57 72.8976C210.67 71.6138 213.992 70.953 217.347 70.9531C218.628 70.9781 219.9 71.1644 221.134 71.5075C225.247 72.6178 228.995 74.7899 232.003 77.806C235.011 80.8222 237.173 84.5762 238.272 88.6916C241.92 102.023 247.721 124.214 247.388 129.347Z" fill="#2F2E41"/>
<path d="M194.606 175.281L194.629 146.178L177.52 147.706L183.558 166.062L180.732 212.199C179.362 212.506 178.11 213.206 177.131 214.212C176.151 215.219 175.485 216.488 175.215 217.867C174.944 219.245 175.08 220.672 175.607 221.974C176.133 223.276 177.028 224.397 178.18 225.2C179.333 226.003 180.694 226.453 182.098 226.495C183.502 226.538 184.888 226.171 186.087 225.439C187.286 224.708 188.247 223.643 188.851 222.375C189.456 221.108 189.678 219.691 189.491 218.299L194.606 175.281Z" fill="#FFB6B6"/>
<path d="M228.275 383.254L235.187 383.253L238.475 356.594H228.273L228.275 383.254Z" fill="#FFB6B6"/>
<path d="M225.934 379.844L236.861 379.192V383.873L247.249 391.047C247.762 391.401 248.148 391.91 248.352 392.499C248.555 393.089 248.564 393.728 248.379 394.323C248.193 394.918 247.822 395.439 247.32 395.808C246.818 396.177 246.211 396.377 245.587 396.377H232.579L230.337 391.746L229.461 396.377H224.556L225.934 379.844Z" fill="#2F2E41"/>
<path d="M188.309 383.254L195.221 383.253L198.509 356.594H188.308L188.309 383.254Z" fill="#FFB6B6"/>
<path d="M185.968 379.844L196.895 379.192V383.873L207.283 391.047C207.796 391.401 208.182 391.91 208.386 392.499C208.589 393.089 208.599 393.728 208.413 394.323C208.228 394.918 207.857 395.439 207.354 395.808C206.852 396.177 206.245 396.377 205.621 396.377H192.613L190.371 391.746L189.495 396.377H184.591L185.968 379.844Z" fill="#2F2E41"/>
<path d="M222.12 114.749L207.801 115.03L197.694 125.698L189.591 126.886C185.925 127.424 182.555 129.203 180.044 131.927C177.533 134.65 176.033 138.153 175.795 141.85L177.198 149.561H185.621L190.494 178.168C188.599 182.996 188.47 186.806 192.359 188.303L204.432 211.043L240.089 195.041C241.897 191.932 242.476 188.81 240.628 185.774L243.177 141.981H251.748C251.748 133.79 248.977 126.885 240.837 125.974C237.604 125.624 234.356 125.438 231.104 125.417L222.12 114.749Z" fill="#FF315A"/>
<path d="M240.089 195.041C240.089 195.041 205.274 201.217 192.359 188.303C192.359 188.303 191.048 190.529 189.072 194.22C188.504 195.282 187.407 196.001 186.744 197.287C186.142 198.455 184.593 199.892 183.937 201.218C183.409 202.284 184.256 203.677 183.706 204.829C177.092 218.701 169.365 238.268 171.022 251.189C172.09 259.522 174.297 278.91 176.62 299.735C176.802 301.362 175.331 303.452 175.514 305.092C175.686 306.638 177.511 307.734 177.683 309.284C177.798 310.313 176.523 311.363 176.637 312.391C176.762 313.519 178.276 314.624 178.4 315.748C181.583 344.502 184.498 371.347 184.498 371.347H200.782L203.855 310.035L201.344 287.686L207.24 242.486L215.382 285.44L216.429 309.614L225.034 372.47H240.089V311.622L241.212 308.461L240.089 304.406L241.212 300.038L240.089 295.281V195.041Z" fill="#2F2E41"/>
<path d="M226.515 106.446C224.297 109.392 221.142 111.495 217.569 112.409C213.995 113.322 210.218 112.992 206.858 111.472C203.498 109.951 200.755 107.333 199.083 104.046C197.41 100.759 196.907 97.0011 197.655 93.3901C198.404 89.7792 200.36 86.5309 203.202 84.1801C206.043 81.8294 209.601 80.5164 213.288 80.4574C216.976 80.3984 220.573 81.5969 223.489 83.8555C226.404 86.1141 228.463 89.2982 229.327 92.8833C229.374 93.0778 229.413 93.2713 229.451 93.4721C229.908 95.7192 229.882 98.0376 229.376 100.274C228.869 102.511 227.894 104.614 226.515 106.446V106.446Z" fill="#FFB6B6"/>
<path d="M223.131 97.1855C222.786 95.4575 221.915 93.8786 220.638 92.6655C220.764 94.3214 220.534 95.9851 219.964 97.5449C215.695 97.9229 211.407 97.0735 207.605 95.0968C204.741 93.1541 201.097 93.3225 196.852 95.0968C196.851 93.0321 197.258 90.9877 198.048 89.0801C198.838 87.1726 199.996 85.4393 201.456 83.9794C202.916 82.5195 204.649 81.3615 206.557 80.5715C208.465 79.7815 210.509 79.375 212.574 79.3752H215.382C219.551 79.376 223.55 81.0326 226.498 83.9808C229.447 86.929 231.104 90.9274 231.104 95.0968C228.513 96.0261 225.845 96.7251 223.131 97.1855V97.1855Z" fill="#2F2E41"/>
<path d="M100.3 297.563C125.246 297.563 145.469 277.341 145.469 252.397C145.469 227.452 125.246 207.231 100.3 207.231C75.3542 207.231 55.1315 227.452 55.1315 252.397C55.1315 277.341 75.3542 297.563 100.3 297.563Z" fill="#F0F0F0"/>
<path d="M388.139 90.3315C413.085 90.3315 433.308 70.1101 433.308 45.1657C433.308 20.2214 413.085 0 388.139 0C363.193 0 342.971 20.2214 342.971 45.1657C342.971 70.1101 363.193 90.3315 388.139 90.3315Z" fill="#F0F0F0"/>
<path d="M746.831 304.647C771.777 304.647 792 284.426 792 259.482C792 234.537 771.777 214.316 746.831 214.316C721.885 214.316 701.663 234.537 701.663 259.482C701.663 284.426 721.885 304.647 746.831 304.647Z" fill="#F0F0F0"/>
<path d="M469.62 50.0913V152.508C469.62 154.635 468.781 156.677 467.285 158.189C465.788 159.701 463.756 160.562 461.628 160.584C461.599 160.587 461.569 160.588 461.54 160.588H449.619C440.081 160.588 430.933 156.799 424.189 150.055C417.444 143.311 413.655 134.164 413.655 124.626V50.0913C413.655 47.9484 414.507 45.8933 416.022 44.3781C417.537 42.8629 419.593 42.0116 421.736 42.0116H426.566C424.328 48.5391 454.699 51.2872 456.367 42.0116H461.54C463.683 42.0116 465.738 42.8629 467.253 44.3781C468.769 45.8934 469.62 47.9485 469.62 50.0913V50.0913Z" fill="#059669"/>
<path d="M434.244 34.3532C434.245 34.0725 434.356 33.8033 434.555 33.6048C434.753 33.4063 435.022 33.2946 435.303 33.2943H442.504C442.784 33.2951 443.053 33.407 443.251 33.6055C443.449 33.804 443.56 34.0729 443.56 34.3532C443.56 34.6335 443.449 34.9024 443.251 35.1008C443.053 35.2993 442.784 35.4112 442.504 35.4121H435.303C435.022 35.4117 434.753 35.3001 434.555 35.1016C434.356 34.9031 434.245 34.6339 434.244 34.3532V34.3532Z" fill="#3F3D56"/>
<path d="M464.014 173.578H418.477C414.944 173.574 411.557 172.169 409.058 169.671C406.56 167.173 405.155 163.786 405.151 160.253V88.6602C404.901 88.4806 404.697 88.244 404.557 87.9701C404.416 87.6961 404.343 87.3927 404.344 87.0849V79.8846C404.343 79.5768 404.416 79.2734 404.557 78.9995C404.697 78.7256 404.901 78.4891 405.151 78.3097V76.3772C404.901 76.1977 404.697 75.9612 404.557 75.6873C404.416 75.4135 404.343 75.1101 404.344 74.8023V67.6016C404.343 67.2938 404.416 66.9904 404.557 66.7165C404.697 66.4426 404.901 66.2062 405.151 66.0267V62.534C404.842 62.3682 404.584 62.1216 404.405 61.8206C404.225 61.5196 404.131 61.1755 404.132 60.8251V53.6248C404.131 53.2743 404.225 52.9301 404.405 52.6291C404.584 52.328 404.842 52.0813 405.151 51.9154V42.345C405.155 38.8123 406.56 35.4254 409.058 32.9274C411.557 30.4295 414.944 29.0244 418.477 29.0204H464.014C467.547 29.0244 470.934 30.4295 473.432 32.9275C475.93 35.4255 477.335 38.8124 477.339 42.3451V63.2064C477.579 63.3566 477.777 63.5652 477.914 63.8128C478.052 64.0603 478.124 64.3387 478.124 64.6217V78.3512C478.124 78.6343 478.052 78.9127 477.914 79.1604C477.777 79.408 477.579 79.6167 477.339 79.7669V160.253C477.335 163.786 475.93 167.173 473.432 169.671C470.934 172.169 467.547 173.574 464.014 173.578V173.578ZM418.477 30.7916C415.413 30.795 412.476 32.0134 410.31 34.1793C408.144 36.3452 406.926 39.2819 406.922 42.3451V53.422L406.07 53.4549C406.026 53.4565 405.984 53.475 405.953 53.5066C405.922 53.5382 405.904 53.5805 405.903 53.6248V60.825C405.904 60.8693 405.922 60.9116 405.953 60.9431C405.984 60.9747 406.026 60.9933 406.07 60.995L406.922 61.0274V67.2703L406.248 67.4364C406.211 67.4454 406.178 67.4665 406.154 67.4963C406.129 67.5262 406.116 67.5632 406.115 67.6016V74.8023C406.116 74.8406 406.129 74.8776 406.154 74.9075C406.178 74.9374 406.211 74.9585 406.248 74.9675L406.922 75.1335V79.5533L406.248 79.7193C406.211 79.7283 406.178 79.7494 406.154 79.7793C406.129 79.8092 406.116 79.8462 406.115 79.8846V87.0848C406.116 87.1233 406.129 87.1603 406.153 87.1903C406.178 87.2202 406.211 87.2414 406.248 87.2504L406.922 87.4165V160.253C406.926 163.317 408.144 166.253 410.31 168.419C412.476 170.585 415.413 171.804 418.477 171.807H464.014C467.077 171.803 470.014 170.585 472.18 168.419C474.346 166.253 475.564 163.317 475.568 160.253V78.2504H476.352V64.723H475.568V42.345C475.564 39.2819 474.346 36.3453 472.18 34.1794C470.014 32.0134 467.077 30.7951 464.014 30.7916L418.477 30.7916Z" fill="#3F3D56"/>
<path d="M446.528 35.4121C447.113 35.4121 447.587 34.938 447.587 34.3532C447.587 33.7684 447.113 33.2943 446.528 33.2943C445.943 33.2943 445.469 33.7684 445.469 34.3532C445.469 34.938 445.943 35.4121 446.528 35.4121Z" fill="#3F3D56"/>
<path d="M216.172 239.47H97.682C95.9994 239.465 94.3868 238.795 93.1969 237.605C92.007 236.416 91.3365 234.803 91.3319 233.121V175.389C91.3363 173.707 92.0066 172.094 93.1963 170.904C94.3861 169.714 95.9985 169.044 97.6812 169.039H216.171C217.854 169.044 219.466 169.714 220.656 170.904C221.846 172.093 222.517 173.706 222.521 175.388V233.12C222.517 234.802 221.846 236.415 220.657 237.605C219.467 238.795 217.855 239.465 216.172 239.47Z" fill="white"/>
<path d="M216.172 239.47H97.682C95.9994 239.465 94.3868 238.795 93.1969 237.605C92.007 236.416 91.3365 234.803 91.3319 233.121V175.389C91.3363 173.707 92.0066 172.094 93.1963 170.904C94.3861 169.714 95.9985 169.044 97.6812 169.039H216.171C217.854 169.044 219.466 169.714 220.656 170.904C221.846 172.093 222.517 173.706 222.521 175.388V233.12C222.517 234.802 221.846 236.415 220.657 237.605C219.467 238.795 217.855 239.465 216.172 239.47ZM97.682 170.811C96.4686 170.814 95.3059 171.298 94.448 172.156C93.5901 173.014 93.1066 174.177 93.1033 175.39V233.12C93.1068 234.333 93.5904 235.496 94.4485 236.354C95.3066 237.212 96.4695 237.695 97.6829 237.698H216.17C217.384 237.695 218.547 237.211 219.405 236.353C220.263 235.495 220.746 234.332 220.75 233.119V175.389C220.746 174.176 220.263 173.013 219.404 172.155C218.546 171.297 217.384 170.814 216.17 170.811L97.682 170.811Z" fill="#3F3D56"/>
<path d="M163.277 230.938C139.909 230.938 115.541 230.714 106.45 230.57C105.254 230.545 104.114 230.054 103.276 229.201C102.437 228.348 101.964 227.201 101.96 226.004V178.216C101.96 177.787 102.13 177.376 102.433 177.073C102.736 176.77 103.146 176.599 103.574 176.597H210.275C210.703 176.598 211.114 176.768 211.417 177.07C211.72 177.373 211.892 177.783 211.893 178.211V210.635C211.873 215.928 209.78 221.002 206.061 224.769C202.343 228.536 197.296 230.695 192.004 230.784C183.531 230.895 173.497 230.938 163.277 230.938Z" fill="#059669"/>
<path d="M203.941 207.656H107.529C106.722 207.654 105.935 207.403 105.275 206.938C104.615 206.473 104.114 205.816 103.841 205.056L92.9285 174.444C92.7182 173.854 92.6527 173.222 92.7374 172.601C92.8222 171.98 93.0547 171.388 93.4154 170.876C93.7762 170.363 94.2547 169.945 94.8107 169.655C95.3668 169.366 95.9841 169.215 96.6109 169.213L217.125 169.046C217.697 169.045 218.263 169.17 218.783 169.412C219.302 169.654 219.762 170.007 220.13 170.445C220.498 170.884 220.766 171.399 220.913 171.952C221.061 172.506 221.086 173.085 220.985 173.649L221.078 173.688L220.732 174.495L220.729 174.504L207.537 205.283C207.237 205.988 206.735 206.588 206.096 207.01C205.457 207.432 204.707 207.657 203.941 207.656V207.656ZM217.13 170.817L96.6143 170.984C96.271 170.985 95.9328 171.068 95.6281 171.227C95.3235 171.385 95.0614 171.614 94.8637 171.895C94.6661 172.176 94.5387 172.5 94.4923 172.84C94.4458 173.18 94.4817 173.526 94.5969 173.85L105.509 204.461C105.659 204.877 105.933 205.237 106.295 205.491C106.657 205.746 107.088 205.884 107.53 205.885H203.941C204.36 205.885 204.771 205.762 205.12 205.531C205.47 205.3 205.744 204.972 205.909 204.586L219.101 173.806L219.75 174.084L219.101 173.806C219.241 173.479 219.298 173.124 219.266 172.77C219.235 172.417 219.116 172.077 218.92 171.781C218.725 171.484 218.459 171.241 218.147 171.073C217.834 170.905 217.485 170.817 217.13 170.817V170.817Z" fill="#3F3D56"/>
<path d="M156.747 214.32C160.916 214.32 164.296 210.94 164.296 206.771C164.296 202.602 160.916 199.222 156.747 199.222C152.577 199.222 149.197 202.602 149.197 206.771C149.197 210.94 152.577 214.32 156.747 214.32Z" fill="white"/>
<path d="M441.929 148.785C446.098 148.785 449.478 145.405 449.478 141.236C449.478 137.067 446.098 133.687 441.929 133.687C437.76 133.687 434.38 137.067 434.38 141.236C434.38 145.405 437.76 148.785 441.929 148.785Z" fill="white"/>
<path d="M727.462 250.732L707.296 230.824C706.314 229.847 705.149 229.073 703.868 228.547C702.587 228.022 701.214 227.754 699.829 227.759H699.759C698.363 227.763 696.982 228.044 695.696 228.585C694.41 229.126 693.244 229.917 692.266 230.912C687.757 235.475 685.192 241.609 685.111 248.023C685.03 254.437 687.439 260.634 691.832 265.309C692.044 265.539 692.266 265.761 692.487 265.982C693.714 267.201 695.068 268.285 696.526 269.214C700.513 271.79 705.162 273.153 709.908 273.138H710.059C713.317 273.127 716.54 272.47 719.542 271.205C722.545 269.94 725.267 268.093 727.551 265.769C729.53 263.762 730.632 261.051 730.615 258.232C730.598 255.413 729.464 252.716 727.462 250.732V250.732ZM726.293 264.521C722.549 268.292 717.619 270.658 712.334 271.22C707.049 271.781 701.732 270.504 697.279 267.603C696.005 266.76 694.816 265.796 693.727 264.724C689.382 260.433 686.919 254.592 686.881 248.485C686.843 242.378 689.232 236.506 693.524 232.161C694.339 231.33 695.312 230.669 696.386 230.217C697.459 229.766 698.612 229.532 699.776 229.531H699.829C700.982 229.527 702.125 229.75 703.192 230.187C704.259 230.625 705.229 231.268 706.047 232.081L726.213 251.998C727.883 253.649 728.829 255.895 728.844 258.243C728.859 260.591 727.941 262.849 726.293 264.521V264.521Z" fill="#3F3D56"/>
<path d="M661.294 185.392L641.128 165.475C639.143 163.506 636.458 162.404 633.662 162.411H633.6C632.203 162.416 630.82 162.699 629.533 163.241C628.245 163.784 627.078 164.576 626.098 165.572C622.37 169.358 619.953 174.238 619.201 179.497C618.449 184.756 619.401 190.118 621.918 194.797L621.927 194.806C622.965 196.72 624.255 198.486 625.762 200.058C625.93 200.252 626.125 200.447 626.32 200.642C630.951 205.239 637.215 207.812 643.741 207.798H643.9C647.158 207.784 650.382 207.125 653.384 205.859C656.386 204.593 659.108 202.745 661.392 200.421C662.372 199.428 663.148 198.251 663.673 196.958C664.199 195.665 664.465 194.282 664.456 192.886C664.447 191.491 664.163 190.11 663.621 188.825C663.078 187.539 662.288 186.372 661.294 185.392V185.392ZM660.125 199.181C658.005 201.337 655.479 203.052 652.693 204.227C649.907 205.402 646.915 206.014 643.891 206.027H643.741C639.199 206.025 634.76 204.68 630.98 202.162C627.201 199.644 624.251 196.065 622.501 191.875C620.751 187.684 620.278 183.07 621.144 178.612C622.009 174.155 624.174 170.052 627.365 166.821C629.016 165.152 631.262 164.206 633.61 164.191C635.958 164.176 638.216 165.093 639.888 166.741L660.054 186.65C661.723 188.304 662.667 190.552 662.68 192.901C662.694 195.25 661.775 197.508 660.125 199.181L660.125 199.181Z" fill="#3F3D56"/>
<path d="M728.751 256.991L706.518 235.034C705.06 233.597 703.092 232.797 701.045 232.81C698.998 232.823 697.04 233.647 695.6 235.101C693.799 236.921 692.374 239.078 691.407 241.449C690.439 243.819 689.949 246.358 689.964 248.918C689.978 251.478 690.497 254.011 691.491 256.37C692.485 258.73 693.934 260.871 695.756 262.67C697.578 264.469 699.736 265.891 702.108 266.856C704.48 267.82 707.019 268.308 709.58 268.291C712.14 268.273 714.672 267.751 717.031 266.755C719.389 265.759 721.529 264.307 723.326 262.483L728.751 256.991Z" fill="#059669"/>
<path d="M662.587 191.648L640.354 169.69C638.897 168.254 636.928 167.454 634.881 167.467C632.835 167.479 630.877 168.303 629.437 169.758C627.635 171.578 626.21 173.735 625.243 176.105C624.276 178.476 623.786 181.014 623.8 183.574C623.814 186.135 624.333 188.667 625.327 191.027C626.321 193.387 627.771 195.527 629.592 197.326C631.414 199.126 633.573 200.548 635.945 201.513C638.317 202.477 640.855 202.965 643.416 202.947C645.976 202.93 648.508 202.408 650.867 201.412C653.226 200.415 655.365 198.964 657.162 197.14L662.587 191.648Z" fill="#059669"/>
<path d="M704.32 270.667L703.788 272.066C701.291 271.118 698.87 270.168 696.526 269.214C655.006 252.273 635.185 232.444 621.927 194.806L621.918 194.797C621.289 193.026 620.678 191.213 620.085 189.36L621.484 188.908C621.952 190.691 622.636 192.41 623.521 194.027C624.247 196.09 624.994 198.101 625.762 200.058C638.223 231.824 656.6 249.979 691.832 265.309C693.603 266.079 695.419 266.844 697.279 267.603C699.438 269.01 701.818 270.045 704.32 270.667V270.667Z" fill="#3F3D56"/>
<path d="M640.758 206.186L639.513 207.446L685.513 252.876L686.758 251.615L640.758 206.186Z" fill="#3F3D56"/>
<path d="M251.319 168.543L251.342 139.44L234.234 140.969L240.272 159.324L218.354 192.547C216.984 192.854 215.732 193.554 214.752 194.56C213.773 195.567 213.107 196.836 212.836 198.215C212.566 199.593 212.702 201.02 213.229 202.322C213.755 203.624 214.649 204.745 215.802 205.548C216.955 206.351 218.316 206.801 219.72 206.843C221.124 206.886 222.51 206.519 223.709 205.787C224.908 205.056 225.868 203.991 226.473 202.723C227.077 201.456 227.3 200.039 227.113 198.647L251.319 168.543Z" fill="#FFB6B6"/>
</g>
<defs>
<clipPath id="clip0_2_30">
<rect width="792" height="397" fill="white"/>
</clipPath>
</defs>
</svg>
