<svg width="581" height="429" viewBox="0 0 581 429" fill="none" xmlns="http://www.w3.org/2000/svg">
<g clip-path="url(#clip0_5_66)">
<path d="M46.4241 92.9821C72.0634 92.9821 92.8481 72.1673 92.8481 46.491C92.8481 20.8147 72.0634 0 46.4241 0C20.7848 0 0 20.8147 0 46.491C0 72.1673 20.7848 92.9821 46.4241 92.9821Z" fill="#FF315A"/>
<path d="M275.983 429C402.942 429 505.862 419.956 505.862 408.8C505.862 397.644 402.942 388.601 275.983 388.601C149.024 388.601 46.1039 397.644 46.1039 408.8C46.1039 419.956 149.024 429 275.983 429Z" fill="#3F3D56"/>
<path d="M353.143 395.013H351.222C351.222 330.421 362.836 269.714 383.926 224.077C405.124 178.203 433.42 152.939 463.6 152.939V154.863C402.694 154.863 353.143 262.594 353.143 395.013Z" fill="#3F3D56"/>
<path d="M505.222 96.509C505.222 111.561 498.628 130.816 490.494 130.816C482.36 130.816 475.767 111.561 475.767 96.509C475.767 81.4574 482.36 76.3094 490.494 76.3094C498.628 76.3094 505.222 81.4574 505.222 96.509Z" fill="#E6E6E6"/>
<path d="M563.021 160.718C548.155 162.933 528.166 159.236 526.969 151.179C525.772 143.122 543.82 133.757 558.687 131.542C573.553 129.327 579.608 135.101 580.805 143.157C582.002 151.214 577.888 158.503 563.021 160.718Z" fill="#E6E6E6"/>
<path d="M497.139 217.978C491.823 203.9 491.189 183.553 498.797 180.672C506.405 177.791 519.374 193.466 524.69 207.545C530.007 221.623 525.658 228.774 518.05 231.655C510.442 234.536 502.456 232.057 497.139 217.978Z" fill="#E6E6E6"/>
<path d="M496.898 172.498C507.153 172.498 515.467 164.172 515.467 153.901C515.467 143.631 507.153 135.305 496.898 135.305C486.642 135.305 478.328 143.631 478.328 153.901C478.328 164.172 486.642 172.498 496.898 172.498Z" fill="#059669"/>
<path d="M246.208 402.067H244.287C244.287 269.648 194.736 161.917 133.829 161.917V159.993C164.01 159.993 192.306 185.257 213.504 231.131C234.593 276.768 246.208 337.475 246.208 402.067Z" fill="#3F3D56"/>
<path d="M92.2078 103.563C92.2078 118.614 98.8016 137.87 106.935 137.87C115.069 137.87 121.663 118.614 121.663 103.563C121.663 88.5112 115.069 83.3633 106.935 83.3633C98.8016 83.3633 92.2078 88.5112 92.2078 103.563Z" fill="#E6E6E6"/>
<path d="M34.4083 167.772C49.2746 169.987 69.2634 166.289 70.4604 158.233C71.6574 150.176 53.6092 140.811 38.743 138.596C23.8767 136.381 17.8217 142.154 16.6248 150.211C15.4278 158.268 19.542 165.557 34.4083 167.772Z" fill="#E6E6E6"/>
<path d="M100.29 225.032C105.607 210.954 106.24 190.607 98.6322 187.726C91.0242 184.845 78.0555 200.52 72.7391 214.598C67.4227 228.677 71.772 235.828 79.38 238.709C86.988 241.59 94.9738 239.111 100.29 225.032Z" fill="#E6E6E6"/>
<path d="M100.532 179.552C110.788 179.552 119.102 171.226 119.102 160.955C119.102 150.685 110.788 142.359 100.532 142.359C90.2764 142.359 81.9625 150.685 81.9625 160.955C81.9625 171.226 90.2764 179.552 100.532 179.552Z" fill="#059669"/>
<path d="M117.821 398.22V361.027C117.821 361.027 132.549 374.493 117.821 401.426" fill="#3F3D56"/>
<path d="M118.307 397.255L128.744 361.561C128.744 361.561 139.099 378.63 117.407 400.332" fill="#3F3D56"/>
<path d="M376.515 389.883V352.691C376.515 352.691 391.243 366.157 376.515 393.09" fill="#3F3D56"/>
<path d="M377.001 388.919L387.438 353.225C387.438 353.225 397.793 370.293 376.101 391.996" fill="#3F3D56"/>
<path d="M321.447 391.807V354.614C321.447 354.614 306.719 368.081 321.447 395.013" fill="#3F3D56"/>
<path d="M320.961 390.843L310.524 355.149C310.524 355.149 300.169 372.217 321.86 393.92" fill="#3F3D56"/>
<path d="M274.169 46.8116H274.169C281.46 46.8116 288.454 49.7124 293.61 54.8759C298.766 60.0393 301.662 67.0425 301.662 74.3447V101.31H246.675V74.3447C246.675 70.729 247.386 67.1487 248.768 63.8083C250.15 60.4678 252.175 57.4326 254.728 54.8759C257.281 52.3192 260.312 50.2911 263.647 48.9075C266.983 47.5238 270.558 46.8116 274.169 46.8116V46.8116Z" fill="#2F2E41"/>
<path d="M301.379 104.433C291.294 111.607 277.861 114.373 263.398 115.786C273.363 107.689 269.458 98.7467 263.398 89.6725L285.506 87.4017C286.145 95.6393 292.524 100.717 301.379 104.433Z" fill="#FFB8B8"/>
<path d="M305.914 190.154L240.723 181.071C246.007 171.101 249.556 161.47 248.311 152.772C247.648 148.425 247.704 143.999 248.475 139.67L248.889 137.454C249.753 133.191 251.399 129.125 253.746 125.465C256.364 121.24 255.461 114.892 254.328 108.406L269.634 106.136C278.079 110.432 287.561 107.569 297.411 102.162L315.551 103.865C314.321 136.237 311.619 165.929 305.914 190.154Z" fill="#E6E6E6"/>
<path d="M360.334 384.873L347.862 387.143L267.366 246.923L235.621 387.143L224.284 386.576C224.036 307.112 220.468 219.864 239.657 185.977C246.857 168.868 257.872 152.485 253.761 135.656C269.909 140.368 286.162 140.031 302.512 135.088C301.745 155.281 302.472 174.2 305.347 191.289L360.334 384.873Z" fill="#059669"/>
<path d="M356.782 422.908C354.06 422.908 351.413 422.009 349.253 420.351C347.092 418.693 345.537 416.367 344.829 413.735L343.724 409.622C343.462 408.648 343.383 407.633 343.491 406.631L345.595 387.143C349.606 382.163 355.439 380.963 363.735 384.873L368.861 407.804C369.267 409.617 369.26 411.498 368.841 413.308C368.423 415.118 367.604 416.811 366.444 418.261C365.284 419.711 363.814 420.882 362.141 421.686C360.469 422.49 358.637 422.908 356.782 422.908V422.908Z" fill="#2F2E41"/>
<path d="M231.503 422.908C228.78 422.908 226.134 422.009 223.973 420.351C221.812 418.693 220.258 416.367 219.55 413.735L218.444 409.622C218.183 408.648 218.104 407.634 218.212 406.631L220.316 387.143C224.327 382.163 230.16 380.963 238.456 384.873L243.582 407.804C243.987 409.617 243.981 411.498 243.562 413.308C243.144 415.118 242.324 416.811 241.164 418.261C240.005 419.711 238.534 420.882 236.862 421.686C235.19 422.49 233.358 422.908 231.503 422.908V422.908Z" fill="#2F2E41"/>
<path d="M271.334 96.4848C281.666 96.4848 290.041 88.0974 290.041 77.7509C290.041 67.4045 281.666 59.0171 271.334 59.0171C261.003 59.0171 252.628 67.4045 252.628 77.7509C252.628 88.0974 261.003 96.4848 271.334 96.4848Z" fill="#FFB8B8"/>
<path d="M256.879 141.049C257.818 141.049 258.58 140.286 258.58 139.346C258.58 138.405 257.818 137.642 256.879 137.642C255.94 137.642 255.178 138.405 255.178 139.346C255.178 140.286 255.94 141.049 256.879 141.049Z" fill="#E6E6E6"/>
<path d="M299.961 141.049C300.901 141.049 301.662 140.286 301.662 139.346C301.662 138.405 300.901 137.642 299.961 137.642C299.022 137.642 298.261 138.405 298.261 139.346C298.261 140.286 299.022 141.049 299.961 141.049Z" fill="#E6E6E6"/>
<path d="M283.522 75.1962L254.045 74.6736V55.3269H289.758L283.522 75.1962Z" fill="#2F2E41"/>
<path d="M295.427 100.742H282.388C287.207 89.2128 286.783 77.0508 282.388 64.4102H295.427V100.742Z" fill="#2F2E41"/>
<path d="M311.582 208.32L303.859 217.388C302.867 218.553 301.612 219.464 300.198 220.046C298.784 220.628 297.252 220.864 295.728 220.734C294.205 220.604 292.735 220.113 291.439 219.3C290.144 218.487 289.06 217.377 288.279 216.061V216.061C287.579 214.882 287.139 213.568 286.987 212.205C286.836 210.842 286.977 209.463 287.401 208.159C287.825 206.855 288.522 205.657 289.445 204.645C290.369 203.632 291.497 202.829 292.756 202.289L306.481 196.399L322.92 173.123L313.85 132.817L329.723 127.708L338.792 178.8L311.582 208.32Z" fill="#FFB8B8"/>
<path d="M252.061 212.567L259.784 221.635C260.776 222.8 262.031 223.711 263.445 224.293C264.859 224.875 266.392 225.111 267.915 224.981C269.438 224.851 270.908 224.359 272.204 223.547C273.5 222.734 274.583 221.624 275.364 220.308V220.308C276.064 219.129 276.504 217.814 276.656 216.452C276.807 215.089 276.666 213.71 276.242 212.406C275.819 211.102 275.122 209.904 274.198 208.891C273.274 207.879 272.146 207.076 270.887 206.536L257.163 200.646L240.723 177.37L249.793 137.064L233.921 131.955L224.851 183.047L252.061 212.567Z" fill="#FFB8B8"/>
<path d="M331.99 129.979C328.432 129.873 324.89 130.499 321.584 131.819C318.277 133.139 315.277 135.125 312.768 137.653L307.099 103.592L313.955 103.511C316.751 103.615 319.447 104.575 321.681 106.262C323.914 107.95 325.577 110.283 326.444 112.946L331.99 129.979Z" fill="#E6E6E6"/>
<path d="M231.653 134.226C235.211 134.12 238.753 134.746 242.059 136.066C245.366 137.386 248.366 139.372 250.876 141.9C257.436 131.935 258.387 120.302 256.544 107.839L249.688 107.758C246.892 107.862 244.196 108.822 241.962 110.509C239.729 112.197 238.067 114.529 237.199 117.193L231.653 134.226Z" fill="#E6E6E6"/>
<path d="M299.678 137.926H300.303L304.067 102.923C304.077 102.827 304.067 102.73 304.037 102.638C304.008 102.546 303.959 102.462 303.895 102.39C303.83 102.318 303.751 102.261 303.663 102.221C303.575 102.182 303.48 102.162 303.383 102.162H300.366C300.183 102.162 300.009 102.234 299.88 102.363C299.751 102.493 299.678 102.668 299.678 102.85V137.926Z" fill="#059669"/>
<path d="M256.029 139.629H256.658L260.423 107.59C260.431 107.514 260.424 107.437 260.401 107.365C260.378 107.292 260.34 107.225 260.29 107.168C260.239 107.111 260.177 107.066 260.108 107.034C260.039 107.003 259.963 106.987 259.887 106.987H256.568C256.425 106.987 256.288 107.044 256.187 107.145C256.086 107.247 256.029 107.384 256.029 107.527V139.629Z" fill="#059669"/>
</g>
<defs>
<clipPath id="clip0_5_66">
<rect width="581" height="429" fill="white"/>
</clipPath>
</defs>
</svg>
